<svg width="17" height="17" viewBox="0 0 17 17" fill="none" xmlns="http://www.w3.org/2000/svg">
<g id="uis:calender">
<path id="Vector" d="M1.73332 13.1673C1.73332 14.3007 2.59999 15.1673 3.73332 15.1673H13.0667C14.2 15.1673 15.0667 14.3007 15.0667 13.1673V7.83398H1.73332V13.1673ZM13.0667 3.16732H11.7333V2.50065C11.7333 2.10065 11.4667 1.83398 11.0667 1.83398C10.6667 1.83398 10.4 2.10065 10.4 2.50065V3.16732H6.39999V2.50065C6.39999 2.10065 6.13332 1.83398 5.73332 1.83398C5.33332 1.83398 5.06666 2.10065 5.06666 2.50065V3.16732H3.73332C2.59999 3.16732 1.73332 4.03398 1.73332 5.16732V6.50065H15.0667V5.16732C15.0667 4.03398 14.2 3.16732 13.0667 3.16732Z" fill="#3355B9"/>
</g>
</svg>
